<?xml version="1.0" encoding="utf-8"?>
<!-- Generated by IcoMoon.io -->
<!DOCTYPE svg PUBLIC "-//W3C//DTD SVG 1.1//EN" "http://www.w3.org/Graphics/SVG/1.1/DTD/svg11.dtd">
<svg version="1.1" xmlns="http://www.w3.org/2000/svg" xmlns:xlink="http://www.w3.org/1999/xlink" width="136" height="128" viewBox="0 0 136 128">
<path fill="#020718" d="M6.048 112h71.952c3.308 0 6-2.692 6-6v-76c0-0.092-0.040-0.172-0.052-0.26s-0.028-0.164-0.052-0.248c-0.092-0.344-0.24-0.664-0.488-0.908l-27.996-27.996c-0.244-0.244-0.564-0.392-0.908-0.488-0.084-0.024-0.16-0.040-0.248-0.052-0.084-0.008-0.164-0.048-0.256-0.048h-47.976c-3.32 0-6.024 2.692-6.024 6v100c0 3.308 2.712 6 6.048 6zM56 6.828l21.172 21.172h-19.172c-1.1 0-2-0.896-2-2v-19.172zM4 6c0-1.104 0.908-2 2.024-2h45.976v22c0 3.308 2.692 6 6 6h22v74c0 1.104-0.9 2-2 2h-71.952c-1.132 0-2.048-0.896-2.048-2v-100zM18 48h48c1.104 0 2-0.896 2-2s-0.896-2-2-2h-48c-1.104 0-2 0.896-2 2s0.896 2 2 2zM18 64h48c1.104 0 2-0.896 2-2s-0.896-2-2-2h-48c-1.104 0-2 0.896-2 2s0.896 2 2 2zM18 32h20c1.104 0 2-0.896 2-2s-0.896-2-2-2h-20c-1.104 0-2 0.896-2 2s0.896 2 2 2zM18 80h48c1.104 0 2-0.896 2-2s-0.896-2-2-2h-48c-1.104 0-2 0.896-2 2s0.896 2 2 2zM18 96h48c1.104 0 2-0.896 2-2s-0.896-2-2-2h-48c-1.104 0-2 0.896-2 2s0.896 2 2 2zM86 20h18v22c0 3.308 2.692 6 6 6h22v74c0 1.104-0.9 2-2 2h-71.952c-1.132 0-2.048-0.896-2.048-2v-4c0-1.104-0.896-2-2-2s-2 0.896-2 2v4c0 3.308 2.712 6 6.048 6h71.952c3.308 0 6-2.692 6-6v-76c0-0.092-0.040-0.172-0.052-0.26s-0.028-0.164-0.052-0.248c-0.092-0.344-0.24-0.664-0.488-0.908l-27.996-27.996c-0.244-0.248-0.568-0.396-0.912-0.488-0.084-0.024-0.156-0.036-0.244-0.048-0.084-0.012-0.164-0.052-0.256-0.052h-20c-1.104 0-2 0.896-2 2s0.896 2 2 2zM110 44c-1.1 0-2-0.896-2-2v-19.172l21.172 21.172h-19.172zM94 64h24c1.104 0 2-0.896 2-2s-0.896-2-2-2h-24c-1.104 0-2 0.896-2 2s0.896 2 2 2zM94 80h24c1.104 0 2-0.896 2-2s-0.896-2-2-2h-24c-1.104 0-2 0.896-2 2s0.896 2 2 2zM94 96h24c1.104 0 2-0.896 2-2s-0.896-2-2-2h-24c-1.104 0-2 0.896-2 2s0.896 2 2 2zM94 112h24c1.104 0 2-0.896 2-2s-0.896-2-2-2h-24c-1.104 0-2 0.896-2 2s0.896 2 2 2z"></path>
</svg>
